<svg xmlns="http://www.w3.org/2000/svg" xmlns:xlink="http://www.w3.org/1999/xlink" width="500" zoomAndPan="magnify" viewBox="0 0 375 374.999991" height="500" preserveAspectRatio="xMidYMid meet" version="1.0"><defs><g/></defs><g fill="#000000" fill-opacity="1"><g transform="translate(80.34375, 198.749987)"><g><path d="M 17.515625 -27.203125 L 11.6875 -27.203125 C 10.050781 -27.203125 8.71875 -26.757812 7.6875 -25.875 C 6.664062 -25 6.15625 -23.757812 6.15625 -22.15625 C 6.15625 -20.613281 6.546875 -19.394531 7.328125 -18.5 C 8.117188 -17.601562 9.328125 -16.957031 10.953125 -16.5625 L 16.5625 -15.203125 C 20.5625 -14.265625 22.5625 -11.648438 22.5625 -7.359375 C 22.5625 -5.203125 21.882812 -3.4375 20.53125 -2.0625 C 19.1875 -0.6875 17.328125 0 14.953125 0 L 2.875 0 L 2.875 -6.484375 L 3.6875 -6.484375 L 6 -0.796875 L 12.796875 -0.796875 C 14.453125 -0.796875 15.769531 -1.234375 16.75 -2.109375 C 17.738281 -2.992188 18.234375 -4.238281 18.234375 -5.84375 C 18.234375 -7.414062 17.847656 -8.640625 17.078125 -9.515625 C 16.304688 -10.398438 15.09375 -11.039062 13.4375 -11.4375 L 7.921875 -12.796875 C 3.867188 -13.753906 1.84375 -16.367188 1.84375 -20.640625 C 1.84375 -22.078125 2.160156 -23.347656 2.796875 -24.453125 C 3.441406 -25.566406 4.34375 -26.4375 5.5 -27.0625 C 6.65625 -27.6875 8.019531 -28 9.59375 -28 L 20.5625 -28 L 20.5625 -21.59375 L 19.765625 -21.59375 Z M 17.515625 -27.203125 "/></g></g></g><g fill="#000000" fill-opacity="1"><g transform="translate(104.261374, 198.749987)"><g><path d="M 1.515625 -21.359375 L 0.71875 -21.359375 L 0.71875 -28 L 22.15625 -28 L 22.15625 -21.359375 L 21.359375 -21.359375 L 18.953125 -27.203125 L 13.59375 -27.203125 L 13.59375 -1 L 16.15625 -0.796875 L 16.15625 0 L 6.71875 0 L 6.71875 -0.796875 L 9.28125 -1 L 9.28125 -27.203125 L 3.84375 -27.203125 Z M 1.515625 -21.359375 "/></g></g></g><g fill="#000000" fill-opacity="1"><g transform="translate(127.059114, 198.749987)"><g><path d="M 12.796875 -28 L 16.640625 -28 L 25.203125 -1.046875 L 27.921875 -0.796875 L 27.921875 0 L 18.15625 0 L 18.15625 -0.796875 L 20.5625 -1 L 17.5625 -10.5625 L 7.234375 -10.5625 L 4.203125 -0.921875 L 6.71875 -0.796875 L 6.71875 0 L 0.71875 0 L 0.71875 -0.796875 L 3.3125 -0.921875 L 11.921875 -28 Z M 12.484375 -26.953125 L 12.3125 -26.5625 L 7.515625 -11.359375 L 17.3125 -11.359375 L 12.5625 -26.5625 Z M 12.484375 -26.953125 "/></g></g></g><g fill="#000000" fill-opacity="1"><g transform="translate(155.536281, 198.749987)"><g><path d="M 0.71875 -27.203125 L 0.71875 -28 L 14.875 -28 C 17.675781 -28 19.910156 -27.304688 21.578125 -25.921875 C 23.242188 -24.535156 24.078125 -22.320312 24.078125 -19.28125 C 24.078125 -17.039062 23.601562 -15.242188 22.65625 -13.890625 C 21.707031 -12.546875 20.394531 -11.609375 18.71875 -11.078125 L 24.203125 -1 L 26.875 -0.796875 L 26.875 0 L 16.953125 0 L 16.953125 -0.796875 L 19.40625 -1 L 14.28125 -10.5625 L 7.59375 -10.5625 L 7.59375 -1 L 10.15625 -0.796875 L 10.15625 0 L 0.71875 0 L 0.71875 -0.796875 L 3.28125 -1 L 3.28125 -27 Z M 7.59375 -27.203125 L 7.59375 -11.359375 L 12.40625 -11.359375 C 13.8125 -11.359375 15.0625 -11.601562 16.15625 -12.09375 C 17.25 -12.59375 18.109375 -13.421875 18.734375 -14.578125 C 19.367188 -15.734375 19.6875 -17.300781 19.6875 -19.28125 C 19.6875 -21.25 19.378906 -22.8125 18.765625 -23.96875 C 18.148438 -25.132812 17.296875 -25.960938 16.203125 -26.453125 C 15.109375 -26.953125 13.84375 -27.203125 12.40625 -27.203125 Z M 7.59375 -27.203125 "/></g></g></g><g fill="#000000" fill-opacity="1"><g transform="translate(182.973558, 198.749987)"><g><path d="M 21.28125 -6.484375 L 22.078125 -6.484375 L 22.078125 0 L 0.71875 0 L 0.71875 -0.796875 L 3.28125 -1 L 3.28125 -27 L 0.71875 -27.203125 L 0.71875 -28 L 10.15625 -28 L 10.15625 -27.203125 L 7.59375 -27 L 7.59375 -0.796875 L 18.875 -0.796875 Z M 21.28125 -6.484375 "/></g></g></g><g fill="#000000" fill-opacity="1"><g transform="translate(205.531314, 198.749987)"><g><path d="M 0.71875 -27.203125 L 0.71875 -28 L 10.15625 -28 L 10.15625 -27.203125 L 7.59375 -27 L 7.59375 -1 L 10.15625 -0.796875 L 10.15625 0 L 0.71875 0 L 0.71875 -0.796875 L 3.28125 -1 L 3.28125 -27 Z M 0.71875 -27.203125 "/></g></g></g><g fill="#000000" fill-opacity="1"><g transform="translate(216.410239, 198.749987)"><g><path d="M 14.15625 -14.40625 L 24.484375 -14.40625 L 24.484375 0 L 13.921875 0 C 12.367188 0 10.863281 -0.269531 9.40625 -0.8125 C 7.957031 -1.363281 6.664062 -2.207031 5.53125 -3.34375 C 4.40625 -4.476562 3.507812 -5.929688 2.84375 -7.703125 C 2.175781 -9.472656 1.84375 -11.570312 1.84375 -14 C 1.84375 -16.457031 2.175781 -18.5625 2.84375 -20.3125 C 3.507812 -22.070312 4.40625 -23.519531 5.53125 -24.65625 C 6.664062 -25.789062 7.957031 -26.628906 9.40625 -27.171875 C 10.863281 -27.722656 12.367188 -28 13.921875 -28 L 24.484375 -28 L 24.484375 -22 L 23.6875 -22 L 21.3125 -27.203125 L 16.15625 -27.203125 C 14.289062 -27.203125 12.601562 -26.710938 11.09375 -25.734375 C 9.59375 -24.765625 8.394531 -23.300781 7.5 -21.34375 C 6.601562 -19.382812 6.15625 -16.9375 6.15625 -14 C 6.15625 -11.0625 6.632812 -8.613281 7.59375 -6.65625 C 8.5625 -4.695312 9.859375 -3.226562 11.484375 -2.25 C 13.109375 -1.28125 14.90625 -0.796875 16.875 -0.796875 L 20.078125 -0.796875 L 20.078125 -13.59375 L 14.15625 -13.59375 Z M 14.15625 -14.40625 "/></g></g></g><g fill="#000000" fill-opacity="1"><g transform="translate(242.647637, 198.749987)"><g><path d="M 0.71875 -27.203125 L 0.71875 -28 L 10.15625 -28 L 10.15625 -27.203125 L 7.59375 -27 L 7.59375 -14.40625 L 21.6875 -14.40625 L 21.6875 -27 L 19.125 -27.203125 L 19.125 -28 L 28.5625 -28 L 28.5625 -27.203125 L 26.078125 -27 L 26.078125 -1 L 28.5625 -0.796875 L 28.5625 0 L 19.125 0 L 19.125 -0.796875 L 21.6875 -1 L 21.6875 -13.59375 L 7.59375 -13.59375 L 7.59375 -1 L 10.15625 -0.796875 L 10.15625 0 L 0.71875 0 L 0.71875 -0.796875 L 3.28125 -1 L 3.28125 -27 Z M 0.71875 -27.203125 "/></g></g></g><g fill="#000000" fill-opacity="1"><g transform="translate(271.844741, 198.749987)"><g><path d="M 1.515625 -21.359375 L 0.71875 -21.359375 L 0.71875 -28 L 22.15625 -28 L 22.15625 -21.359375 L 21.359375 -21.359375 L 18.953125 -27.203125 L 13.59375 -27.203125 L 13.59375 -1 L 16.15625 -0.796875 L 16.15625 0 L 6.71875 0 L 6.71875 -0.796875 L 9.28125 -1 L 9.28125 -27.203125 L 3.84375 -27.203125 Z M 1.515625 -21.359375 "/></g></g></g><path fill="#0cc0df" d="M 142.460938 212.199219 L 232.527344 212.199219 C 238.351562 212.199219 243.078125 216.921875 243.078125 222.75 C 243.078125 228.578125 238.351562 233.300781 232.527344 233.300781 L 142.460938 233.300781 C 136.636719 233.300781 131.910156 228.578125 131.910156 222.75 C 131.910156 216.921875 136.636719 212.199219 142.460938 212.199219 Z M 142.460938 212.199219 " fill-opacity="1" fill-rule="nonzero"/><g fill="#ffffff" fill-opacity="1"><g transform="translate(133.511714, 229.499985)"><g><path d="M 14.625 -6.65625 C 14.625 -6.726562 14.660156 -6.769531 14.734375 -6.78125 C 14.816406 -6.800781 14.914062 -6.796875 15.03125 -6.765625 C 15.15625 -6.742188 15.269531 -6.703125 15.375 -6.640625 C 15.582031 -6.515625 15.878906 -6.273438 16.265625 -5.921875 C 16.484375 -5.703125 16.628906 -5.53125 16.703125 -5.40625 C 16.773438 -5.289062 16.804688 -5.148438 16.796875 -4.984375 C 16.773438 -4.804688 16.710938 -4.664062 16.609375 -4.5625 C 16.503906 -4.46875 16.296875 -4.332031 15.984375 -4.15625 C 15.472656 -3.914062 14.976562 -3.8125 14.5 -3.84375 L 13.78125 -3.859375 L 14.34375 -4.5 C 14.675781 -4.914062 14.875 -5.222656 14.9375 -5.421875 C 15.007812 -5.617188 14.976562 -5.851562 14.84375 -6.125 C 14.695312 -6.382812 14.625 -6.5625 14.625 -6.65625 Z M 10.578125 -13.515625 C 10.910156 -13.660156 11.15625 -13.742188 11.3125 -13.765625 C 11.46875 -13.785156 11.71875 -13.75 12.0625 -13.65625 C 12.269531 -13.59375 12.40625 -13.53125 12.46875 -13.46875 C 12.539062 -13.40625 12.578125 -13.3125 12.578125 -13.1875 C 12.578125 -13.03125 12.550781 -12.925781 12.5 -12.875 C 12.445312 -12.820312 12.347656 -12.785156 12.203125 -12.765625 C 11.941406 -12.722656 11.660156 -12.628906 11.359375 -12.484375 C 11.054688 -12.347656 10.851562 -12.328125 10.75 -12.421875 C 10.644531 -12.515625 10.476562 -12.5625 10.25 -12.5625 C 10.03125 -12.570312 9.800781 -12.640625 9.5625 -12.765625 L 9.21875 -12.9375 L 9.640625 -13.09375 C 9.921875 -13.207031 10.234375 -13.347656 10.578125 -13.515625 Z M 5.015625 -14.796875 C 5.109375 -14.890625 5.257812 -14.851562 5.46875 -14.6875 C 5.675781 -14.519531 5.882812 -14.28125 6.09375 -13.96875 C 6.300781 -13.664062 6.429688 -13.394531 6.484375 -13.15625 C 6.554688 -12.851562 6.632812 -12.65625 6.71875 -12.5625 C 6.800781 -12.476562 6.972656 -12.40625 7.234375 -12.34375 C 7.640625 -12.238281 7.863281 -12.09375 7.90625 -11.90625 C 7.914062 -11.78125 7.875 -11.679688 7.78125 -11.609375 C 7.695312 -11.535156 7.515625 -11.4375 7.234375 -11.3125 C 6.773438 -11.113281 6.476562 -10.914062 6.34375 -10.71875 C 6.207031 -10.53125 6.132812 -10.191406 6.125 -9.703125 C 6.125 -9.140625 6.148438 -8.828125 6.203125 -8.765625 C 6.253906 -8.710938 6.375 -8.769531 6.5625 -8.9375 C 6.695312 -9.0625 6.769531 -9.117188 6.78125 -9.109375 C 6.789062 -9.097656 6.773438 -9 6.734375 -8.8125 C 6.703125 -8.570312 6.738281 -8.453125 6.84375 -8.453125 C 7.125 -8.453125 8.382812 -8.851562 10.625 -9.65625 C 11.75 -10.0625 12.640625 -10.34375 13.296875 -10.5 C 13.753906 -10.644531 14.054688 -10.71875 14.203125 -10.71875 C 14.359375 -10.71875 14.609375 -10.648438 14.953125 -10.515625 C 15.304688 -10.398438 15.578125 -10.25 15.765625 -10.0625 C 15.953125 -9.875 16.003906 -9.691406 15.921875 -9.515625 C 15.867188 -9.378906 15.421875 -9.304688 14.578125 -9.296875 C 13.734375 -9.285156 12.972656 -9.203125 12.296875 -9.046875 L 11.28125 -8.78125 L 11.734375 -8.515625 C 12.015625 -8.347656 12.191406 -8.171875 12.265625 -7.984375 C 12.335938 -7.753906 12.359375 -6.648438 12.328125 -4.671875 C 12.304688 -2.703125 12.25 -1.644531 12.15625 -1.5 C 12.082031 -1.3125 11.925781 -1.21875 11.6875 -1.21875 C 11.457031 -1.21875 11.269531 -1.316406 11.125 -1.515625 C 10.976562 -1.679688 10.644531 -1.941406 10.125 -2.296875 C 9.613281 -2.660156 9.3125 -2.84375 9.21875 -2.84375 C 9.132812 -2.84375 8.972656 -2.722656 8.734375 -2.484375 C 8.566406 -2.316406 8.445312 -2.222656 8.375 -2.203125 C 8.300781 -2.191406 8.203125 -2.226562 8.078125 -2.3125 C 7.929688 -2.394531 7.8125 -2.539062 7.71875 -2.75 C 7.632812 -2.957031 7.484375 -3.394531 7.265625 -4.0625 C 7.148438 -4.382812 7.140625 -4.582031 7.234375 -4.65625 C 7.328125 -4.738281 7.53125 -4.710938 7.84375 -4.578125 L 8.359375 -4.34375 L 9.546875 -4.953125 C 10.328125 -5.378906 10.78125 -5.640625 10.90625 -5.734375 C 11.070312 -5.878906 11.117188 -6.265625 11.046875 -6.890625 C 10.972656 -7.523438 10.84375 -7.898438 10.65625 -8.015625 C 10.539062 -8.085938 10.410156 -8.109375 10.265625 -8.078125 C 10.128906 -8.054688 9.890625 -7.976562 9.546875 -7.84375 C 9.035156 -7.644531 8.457031 -7.46875 7.8125 -7.3125 C 7.175781 -7.15625 6.78125 -7.113281 6.625 -7.1875 C 6.488281 -7.21875 6.394531 -7.335938 6.34375 -7.546875 C 6.257812 -7.785156 6.164062 -7.679688 6.0625 -7.234375 C 5.914062 -6.710938 5.800781 -5.953125 5.71875 -4.953125 C 5.664062 -4.140625 5.578125 -3.347656 5.453125 -2.578125 C 5.328125 -1.816406 5.207031 -1.359375 5.09375 -1.203125 C 5.039062 -1.097656 4.941406 -1.054688 4.796875 -1.078125 C 4.660156 -1.109375 4.546875 -1.203125 4.453125 -1.359375 C 4.117188 -1.984375 3.953125 -2.53125 3.953125 -3 C 3.953125 -3.175781 3.925781 -3.28125 3.875 -3.3125 C 3.820312 -3.351562 3.671875 -3.367188 3.421875 -3.359375 L 2.921875 -3.296875 L 2.796875 -4.125 C 2.742188 -4.476562 2.722656 -4.703125 2.734375 -4.796875 C 2.753906 -4.898438 2.828125 -5 2.953125 -5.09375 C 3.085938 -5.1875 3.316406 -5.492188 3.640625 -6.015625 C 3.972656 -6.535156 4.28125 -7.0625 4.5625 -7.59375 C 4.675781 -7.851562 4.78125 -8.21875 4.875 -8.6875 C 4.96875 -9.164062 4.976562 -9.429688 4.90625 -9.484375 C 4.832031 -9.523438 4.566406 -9.382812 4.109375 -9.0625 C 3.648438 -8.75 3.320312 -8.59375 3.125 -8.59375 C 2.9375 -8.59375 2.570312 -8.671875 2.03125 -8.828125 C 1.488281 -8.984375 1.21875 -9.085938 1.21875 -9.140625 C 1.21875 -9.203125 1.382812 -9.269531 1.71875 -9.34375 C 2.320312 -9.457031 3.179688 -9.929688 4.296875 -10.765625 L 5.15625 -11.40625 L 5.234375 -12.5 C 5.304688 -13.25 5.273438 -13.804688 5.140625 -14.171875 C 5.003906 -14.546875 4.960938 -14.753906 5.015625 -14.796875 Z M 10.90625 -4.265625 C 10.925781 -4.691406 10.878906 -4.90625 10.765625 -4.90625 C 10.617188 -4.90625 10.425781 -4.765625 10.1875 -4.484375 C 9.957031 -4.210938 9.84375 -4 9.84375 -3.84375 C 9.84375 -3.675781 9.867188 -3.578125 9.921875 -3.546875 C 9.972656 -3.523438 10.117188 -3.53125 10.359375 -3.5625 C 10.609375 -3.570312 10.753906 -3.609375 10.796875 -3.671875 C 10.847656 -3.734375 10.882812 -3.929688 10.90625 -4.265625 Z M 4.578125 -3.984375 C 4.617188 -4.273438 4.585938 -4.445312 4.484375 -4.5 C 4.390625 -4.550781 4.269531 -4.453125 4.125 -4.203125 C 4.007812 -4.015625 4.015625 -3.804688 4.140625 -3.578125 C 4.273438 -3.296875 4.378906 -3.253906 4.453125 -3.453125 C 4.484375 -3.546875 4.523438 -3.722656 4.578125 -3.984375 Z M 4.578125 -3.984375 "/></g></g></g><g fill="#ffffff" fill-opacity="1"><g transform="translate(151.504618, 229.499985)"><g><path d="M 9.953125 -5.5625 C 10.316406 -5.8125 10.578125 -5.972656 10.734375 -6.046875 C 10.898438 -6.117188 11.082031 -6.132812 11.28125 -6.09375 C 11.582031 -6.0625 11.84375 -5.972656 12.0625 -5.828125 C 12.289062 -5.691406 12.40625 -5.546875 12.40625 -5.390625 C 12.40625 -5.234375 12.171875 -4.816406 11.703125 -4.140625 C 11.242188 -3.472656 11.015625 -3.113281 11.015625 -3.0625 C 11.015625 -3.007812 10.894531 -2.8125 10.65625 -2.46875 C 10.425781 -2.125 10.3125 -1.898438 10.3125 -1.796875 C 10.3125 -1.742188 10.398438 -1.703125 10.578125 -1.671875 C 10.765625 -1.648438 10.972656 -1.65625 11.203125 -1.6875 C 11.441406 -1.71875 11.644531 -1.769531 11.8125 -1.84375 C 12.144531 -1.945312 12.503906 -1.9375 12.890625 -1.8125 C 13.285156 -1.695312 13.507812 -1.519531 13.5625 -1.28125 C 13.625 -1.039062 13.546875 -0.847656 13.328125 -0.703125 C 13.117188 -0.554688 12.753906 -0.445312 12.234375 -0.375 C 11.660156 -0.3125 11.28125 -0.238281 11.09375 -0.15625 C 10.851562 -0.0078125 10.300781 0.117188 9.4375 0.234375 C 8.894531 0.328125 8.351562 0.460938 7.8125 0.640625 C 7.28125 0.828125 6.945312 0.921875 6.8125 0.921875 C 6.644531 0.921875 6.484375 0.8125 6.328125 0.59375 C 6.171875 0.375 6.09375 0.113281 6.09375 -0.1875 C 6.09375 -0.40625 6.109375 -0.554688 6.140625 -0.640625 C 6.179688 -0.734375 6.28125 -0.800781 6.4375 -0.84375 C 6.664062 -0.9375 6.878906 -0.960938 7.078125 -0.921875 C 7.347656 -0.847656 7.816406 -1.113281 8.484375 -1.71875 C 9.160156 -2.332031 9.742188 -2.992188 10.234375 -3.703125 C 10.734375 -4.410156 10.898438 -4.84375 10.734375 -5 C 10.660156 -5.09375 10.484375 -5.078125 10.203125 -4.953125 C 9.921875 -4.835938 9.734375 -4.691406 9.640625 -4.515625 C 9.578125 -4.410156 9.472656 -4.34375 9.328125 -4.3125 C 9.191406 -4.28125 8.910156 -4.265625 8.484375 -4.265625 C 7.878906 -4.265625 7.503906 -4.195312 7.359375 -4.0625 C 7.210938 -3.925781 7.179688 -3.613281 7.265625 -3.125 C 7.285156 -2.851562 7.289062 -2.671875 7.28125 -2.578125 C 7.269531 -2.492188 7.21875 -2.4375 7.125 -2.40625 C 6.976562 -2.34375 6.742188 -2.390625 6.421875 -2.546875 C 6.109375 -2.710938 5.953125 -2.859375 5.953125 -2.984375 C 5.953125 -3.085938 5.875 -3.171875 5.71875 -3.234375 C 5.53125 -3.304688 5.507812 -3.394531 5.65625 -3.5 C 5.75 -3.550781 5.863281 -3.578125 6 -3.578125 C 6.195312 -3.578125 6.4375 -3.722656 6.71875 -4.015625 C 6.96875 -4.285156 7.269531 -4.507812 7.625 -4.6875 C 7.976562 -4.863281 8.300781 -4.953125 8.59375 -4.953125 C 8.914062 -4.953125 9.367188 -5.15625 9.953125 -5.5625 Z M 8.421875 -7.8125 C 8.984375 -8.03125 9.507812 -8.117188 10 -8.078125 C 10.488281 -8.035156 10.734375 -7.890625 10.734375 -7.640625 C 10.734375 -7.515625 10.648438 -7.398438 10.484375 -7.296875 C 10.316406 -7.191406 10.140625 -7.140625 9.953125 -7.140625 C 9.796875 -7.140625 9.582031 -7.066406 9.3125 -6.921875 C 9.050781 -6.785156 8.679688 -6.695312 8.203125 -6.65625 C 7.878906 -6.613281 7.664062 -6.609375 7.5625 -6.640625 C 7.46875 -6.671875 7.375 -6.757812 7.28125 -6.90625 C 7.132812 -7.113281 7.0625 -7.25 7.0625 -7.3125 C 7.070312 -7.375 7.171875 -7.421875 7.359375 -7.453125 C 7.554688 -7.515625 7.910156 -7.632812 8.421875 -7.8125 Z M 10.734375 -16.78125 C 10.765625 -16.820312 10.847656 -16.832031 10.984375 -16.8125 C 11.117188 -16.800781 11.273438 -16.765625 11.453125 -16.703125 C 11.628906 -16.648438 11.765625 -16.578125 11.859375 -16.484375 C 12.035156 -16.347656 12.109375 -16.175781 12.078125 -15.96875 C 12.054688 -15.757812 11.929688 -15.414062 11.703125 -14.9375 C 11.421875 -14.40625 11.28125 -14.113281 11.28125 -14.0625 C 11.28125 -14.019531 11.394531 -14 11.625 -14 C 11.84375 -14 12.21875 -13.890625 12.75 -13.671875 C 13.28125 -13.453125 13.582031 -13.273438 13.65625 -13.140625 C 13.757812 -12.992188 13.757812 -12.800781 13.65625 -12.5625 C 13.550781 -12.320312 13.40625 -12.203125 13.21875 -12.203125 C 13.039062 -12.203125 12.546875 -12.019531 11.734375 -11.65625 C 10.296875 -11.007812 9.578125 -10.617188 9.578125 -10.484375 C 9.578125 -10.367188 9.957031 -10.285156 10.71875 -10.234375 C 11.507812 -10.179688 12.222656 -10.066406 12.859375 -9.890625 C 13.492188 -9.710938 14.132812 -9.597656 14.78125 -9.546875 C 15.957031 -9.429688 16.820312 -9.035156 17.375 -8.359375 C 17.539062 -8.171875 17.632812 -8.039062 17.65625 -7.96875 C 17.675781 -7.894531 17.640625 -7.816406 17.546875 -7.734375 C 17.421875 -7.617188 17.203125 -7.609375 16.890625 -7.703125 C 16.578125 -7.796875 16.175781 -7.84375 15.6875 -7.84375 C 15.289062 -7.84375 14.9375 -7.878906 14.625 -7.953125 C 14.3125 -8.035156 13.882812 -8.210938 13.34375 -8.484375 C 12.9375 -8.679688 12.457031 -8.875 11.90625 -9.0625 C 11.351562 -9.257812 10.769531 -9.519531 10.15625 -9.84375 L 9.234375 -10.3125 L 8.90625 -9.984375 C 8.675781 -9.742188 8.5625 -9.554688 8.5625 -9.421875 C 8.5625 -9.296875 8.253906 -8.921875 7.640625 -8.296875 L 6.09375 -6.65625 L 4.78125 -5.234375 C 4.289062 -4.679688 3.5625 -3.96875 2.59375 -3.09375 C 1.625 -2.21875 1.039062 -1.742188 0.84375 -1.671875 C 0.644531 -1.609375 0.507812 -1.597656 0.4375 -1.640625 C 0.375 -1.691406 0.34375 -1.8125 0.34375 -2 C 0.34375 -2.132812 0.789062 -2.6875 1.6875 -3.65625 C 2.59375 -4.632812 3.132812 -5.160156 3.3125 -5.234375 C 3.5 -5.304688 4.328125 -6.289062 5.796875 -8.1875 L 7.078125 -9.859375 C 7.160156 -9.953125 7.140625 -9.992188 7.015625 -9.984375 C 6.960938 -9.984375 6.890625 -9.96875 6.796875 -9.9375 C 6.640625 -9.894531 6.507812 -9.898438 6.40625 -9.953125 C 6.3125 -10.015625 6.160156 -10.164062 5.953125 -10.40625 C 5.648438 -10.789062 5.40625 -10.984375 5.21875 -10.984375 C 5.039062 -10.984375 4.707031 -10.84375 4.21875 -10.5625 C 3.738281 -10.289062 3.445312 -10.15625 3.34375 -10.15625 C 3.175781 -10.15625 3.019531 -10.28125 2.875 -10.53125 C 2.726562 -10.78125 2.65625 -11.035156 2.65625 -11.296875 C 2.65625 -11.515625 2.695312 -11.695312 2.78125 -11.84375 C 2.875 -12 3.046875 -12.222656 3.296875 -12.515625 C 3.710938 -12.984375 4.007812 -13.382812 4.1875 -13.71875 C 4.289062 -13.914062 4.394531 -14.09375 4.5 -14.25 C 4.601562 -14.40625 4.691406 -14.515625 4.765625 -14.578125 C 4.835938 -14.648438 4.890625 -14.671875 4.921875 -14.640625 C 4.972656 -14.578125 5.003906 -14.398438 5.015625 -14.109375 C 5.035156 -13.828125 5.007812 -13.53125 4.9375 -13.21875 L 4.84375 -12.640625 L 5.4375 -12.421875 C 5.84375 -12.265625 6.148438 -12.195312 6.359375 -12.21875 C 6.515625 -12.257812 6.898438 -12.597656 7.515625 -13.234375 C 8.128906 -13.867188 8.578125 -14.394531 8.859375 -14.8125 C 9.003906 -15.03125 9.097656 -15.117188 9.140625 -15.078125 C 9.203125 -15.015625 9.09375 -14.675781 8.8125 -14.0625 C 8.539062 -13.445312 8.34375 -13.125 8.21875 -13.09375 C 8.03125 -13.019531 7.757812 -12.351562 7.40625 -11.09375 C 7.226562 -10.5 7.164062 -10.203125 7.21875 -10.203125 C 7.25 -10.203125 7.320312 -10.253906 7.4375 -10.359375 C 7.570312 -10.460938 7.675781 -10.519531 7.75 -10.53125 C 7.832031 -10.539062 7.984375 -10.5 8.203125 -10.40625 C 8.410156 -10.332031 8.570312 -10.304688 8.6875 -10.328125 C 8.800781 -10.347656 8.976562 -10.445312 9.21875 -10.625 C 9.644531 -10.925781 9.890625 -11.132812 9.953125 -11.25 C 10.015625 -11.375 9.984375 -11.570312 9.859375 -11.84375 C 9.710938 -12.132812 9.566406 -12.476562 9.421875 -12.875 C 9.316406 -13.15625 9.265625 -13.335938 9.265625 -13.421875 C 9.273438 -13.515625 9.347656 -13.628906 9.484375 -13.765625 C 9.722656 -14.023438 9.992188 -14.457031 10.296875 -15.0625 C 10.609375 -15.675781 10.753906 -16.082031 10.734375 -16.28125 C 10.722656 -16.53125 10.722656 -16.695312 10.734375 -16.78125 Z M 10.734375 -16.78125 "/></g></g></g><g fill="#ffffff" fill-opacity="1"><g transform="translate(169.497522, 229.499985)"><g><path d="M 2.984375 -7.0625 C 3.242188 -7.34375 3.429688 -7.457031 3.546875 -7.40625 C 3.609375 -7.375 3.597656 -7.304688 3.515625 -7.203125 C 3.453125 -7.109375 3.507812 -7 3.6875 -6.875 C 3.769531 -6.8125 3.816406 -6.722656 3.828125 -6.609375 C 3.835938 -6.492188 3.804688 -6.265625 3.734375 -5.921875 C 3.609375 -5.179688 3.519531 -4.753906 3.46875 -4.640625 C 3.425781 -4.535156 3.3125 -4.484375 3.125 -4.484375 C 2.863281 -4.484375 2.691406 -4.570312 2.609375 -4.75 C 2.523438 -4.925781 2.492188 -5.269531 2.515625 -5.78125 C 2.554688 -6.15625 2.601562 -6.421875 2.65625 -6.578125 C 2.707031 -6.734375 2.816406 -6.894531 2.984375 -7.0625 Z M 7.984375 -11.15625 C 7.984375 -11.332031 7.992188 -11.421875 8.015625 -11.421875 C 8.035156 -11.429688 8.125 -11.367188 8.28125 -11.234375 C 8.488281 -11.066406 8.753906 -10.835938 9.078125 -10.546875 L 9.546875 -10.09375 L 10.453125 -10.421875 C 11.066406 -10.628906 11.804688 -10.765625 12.671875 -10.828125 C 13.546875 -10.898438 14.125 -10.859375 14.40625 -10.703125 C 14.644531 -10.566406 14.890625 -10.453125 15.140625 -10.359375 C 15.367188 -10.273438 15.488281 -10.144531 15.5 -9.96875 C 15.507812 -9.800781 15.40625 -9.664062 15.1875 -9.5625 C 14.601562 -9.289062 14.109375 -9.128906 13.703125 -9.078125 C 13.273438 -8.992188 12.851562 -8.882812 12.4375 -8.75 C 12.019531 -8.613281 11.8125 -8.503906 11.8125 -8.421875 C 11.8125 -8.328125 11.925781 -8.179688 12.15625 -7.984375 C 12.425781 -7.765625 12.515625 -7.519531 12.421875 -7.25 C 12.335938 -6.976562 12.082031 -6.640625 11.65625 -6.234375 C 11.21875 -5.828125 11 -5.601562 11 -5.5625 C 11 -5.519531 11.15625 -5.410156 11.46875 -5.234375 C 11.789062 -5.066406 11.953125 -4.941406 11.953125 -4.859375 C 11.953125 -4.722656 11.425781 -4.457031 10.375 -4.0625 C 9.332031 -3.675781 8.707031 -3.515625 8.5 -3.578125 C 8.40625 -3.609375 8.34375 -3.613281 8.3125 -3.59375 C 8.28125 -3.570312 8.265625 -3.492188 8.265625 -3.359375 C 8.265625 -3.242188 8.300781 -3.082031 8.375 -2.875 C 8.445312 -2.675781 8.519531 -2.53125 8.59375 -2.4375 C 8.625 -2.414062 9.082031 -2.625 9.96875 -3.0625 C 10.863281 -3.5 11.476562 -3.71875 11.8125 -3.71875 C 12.132812 -3.71875 12.488281 -3.628906 12.875 -3.453125 C 13.257812 -3.285156 13.453125 -3.128906 13.453125 -2.984375 C 13.453125 -2.660156 13.0625 -2.097656 12.28125 -1.296875 L 11.65625 -0.65625 L 12.046875 -0.4375 C 12.316406 -0.300781 12.484375 -0.175781 12.546875 -0.0625 C 12.597656 0.0820312 12.566406 0.222656 12.453125 0.359375 C 12.335938 0.503906 12.179688 0.601562 11.984375 0.65625 C 11.054688 0.894531 10.28125 1.007812 9.65625 1 C 9.351562 0.988281 9.003906 1.066406 8.609375 1.234375 C 8.210938 1.410156 7.9375 1.445312 7.78125 1.34375 C 7.632812 1.238281 7.5625 1.117188 7.5625 0.984375 C 7.5625 0.847656 7.476562 0.671875 7.3125 0.453125 C 7.0625 0.109375 6.90625 -0.289062 6.84375 -0.75 C 6.789062 -1.21875 6.800781 -1.960938 6.875 -2.984375 L 7.125 -5.921875 C 7.175781 -6.359375 7.21875 -6.644531 7.25 -6.78125 C 7.289062 -6.925781 7.351562 -6.992188 7.4375 -6.984375 C 7.800781 -6.910156 8.671875 -7.21875 10.046875 -7.90625 C 11.429688 -8.601562 12.375 -9.1875 12.875 -9.65625 C 13.257812 -10.03125 13.15625 -10.21875 12.5625 -10.21875 C 12.457031 -10.21875 12.320312 -10.210938 12.15625 -10.203125 C 11.664062 -10.148438 11.160156 -10.007812 10.640625 -9.78125 C 10.117188 -9.550781 9.425781 -9.148438 8.5625 -8.578125 C 8.050781 -8.242188 7.679688 -8.03125 7.453125 -7.9375 C 7.234375 -7.851562 6.9375 -7.800781 6.5625 -7.78125 C 6.175781 -7.769531 5.925781 -7.78125 5.8125 -7.8125 C 5.707031 -7.84375 5.597656 -7.929688 5.484375 -8.078125 L 5.234375 -8.421875 L 5.84375 -8.578125 C 6.476562 -8.765625 6.796875 -8.929688 6.796875 -9.078125 C 6.796875 -9.109375 6.785156 -9.144531 6.765625 -9.1875 C 6.671875 -9.300781 6.765625 -9.457031 7.046875 -9.65625 C 7.285156 -9.84375 7.5 -10.085938 7.6875 -10.390625 C 7.882812 -10.691406 7.984375 -10.945312 7.984375 -11.15625 Z M 9.78125 -5.859375 C 10.15625 -6.316406 10.328125 -6.554688 10.296875 -6.578125 C 10.253906 -6.628906 10.039062 -6.550781 9.65625 -6.34375 C 9.269531 -6.144531 9.003906 -5.960938 8.859375 -5.796875 C 8.628906 -5.609375 8.550781 -5.457031 8.625 -5.34375 C 8.78125 -4.957031 9.164062 -5.128906 9.78125 -5.859375 Z M 11.40625 -2.578125 C 11.40625 -2.628906 11.363281 -2.660156 11.28125 -2.671875 C 11.195312 -2.691406 11.085938 -2.679688 10.953125 -2.640625 C 10.828125 -2.609375 10.703125 -2.566406 10.578125 -2.515625 C 10.347656 -2.410156 9.945312 -2.117188 9.375 -1.640625 C 8.800781 -1.160156 8.4375 -0.878906 8.28125 -0.796875 C 8.050781 -0.660156 8.023438 -0.582031 8.203125 -0.5625 C 8.335938 -0.550781 8.523438 -0.570312 8.765625 -0.625 C 9.128906 -0.71875 9.660156 -1.023438 10.359375 -1.546875 C 11.054688 -2.078125 11.40625 -2.421875 11.40625 -2.578125 Z M 10.8125 -17.265625 C 11.300781 -17.378906 11.953125 -17.144531 12.765625 -16.5625 C 12.785156 -16.53125 12.8125 -16.34375 12.84375 -16 C 12.882812 -15.65625 12.8125 -15.269531 12.625 -14.84375 L 12.3125 -14.203125 L 12.640625 -13.84375 C 12.847656 -13.601562 13.132812 -13.394531 13.5 -13.21875 C 13.800781 -13.039062 14.003906 -12.851562 14.109375 -12.65625 C 14.210938 -12.457031 14.179688 -12.269531 14.015625 -12.09375 C 13.878906 -11.9375 13.742188 -11.859375 13.609375 -11.859375 C 13.472656 -11.859375 13.269531 -11.769531 13 -11.59375 C 12.75 -11.46875 12.082031 -11.285156 11 -11.046875 C 9.914062 -10.816406 9.328125 -10.738281 9.234375 -10.8125 C 9.179688 -10.882812 9.285156 -11.023438 9.546875 -11.234375 C 9.804688 -11.453125 9.898438 -11.609375 9.828125 -11.703125 C 9.765625 -11.804688 9.695312 -12.117188 9.625 -12.640625 C 9.488281 -13.398438 9.617188 -13.859375 10.015625 -14.015625 C 10.179688 -14.097656 10.476562 -14.375 10.90625 -14.84375 C 11.25 -15.238281 11.476562 -15.628906 11.59375 -16.015625 C 11.71875 -16.398438 11.679688 -16.679688 11.484375 -16.859375 C 11.335938 -17.015625 11.179688 -17.070312 11.015625 -17.03125 C 10.859375 -17 10.734375 -16.890625 10.640625 -16.703125 C 10.546875 -16.484375 10.460938 -16.375 10.390625 -16.375 C 10.328125 -16.375 10.296875 -16.3125 10.296875 -16.1875 C 10.296875 -16.0625 10.226562 -15.945312 10.09375 -15.84375 C 9.945312 -15.707031 9.570312 -15.175781 8.96875 -14.25 C 8.363281 -13.320312 7.875 -12.503906 7.5 -11.796875 C 7.019531 -10.960938 6.640625 -10.46875 6.359375 -10.3125 C 6.078125 -10.15625 5.804688 -10.3125 5.546875 -10.78125 C 5.429688 -10.957031 5.332031 -11.0625 5.25 -11.09375 C 5.175781 -11.132812 5.03125 -11.144531 4.8125 -11.125 C 4.5 -11.050781 4.210938 -10.957031 3.953125 -10.84375 C 3.617188 -10.664062 3.410156 -10.597656 3.328125 -10.640625 C 3.242188 -10.691406 3.203125 -10.875 3.203125 -11.1875 C 3.203125 -11.539062 3.269531 -11.757812 3.40625 -11.84375 C 3.625 -11.976562 4.226562 -12.679688 5.21875 -13.953125 C 5.5625 -14.441406 5.742188 -14.609375 5.765625 -14.453125 C 5.785156 -14.359375 5.71875 -14.175781 5.5625 -13.90625 C 5.414062 -13.59375 5.304688 -13.285156 5.234375 -12.984375 C 5.203125 -12.785156 5.191406 -12.65625 5.203125 -12.59375 C 5.222656 -12.53125 5.316406 -12.46875 5.484375 -12.40625 C 5.691406 -12.3125 5.878906 -12.265625 6.046875 -12.265625 C 6.191406 -12.265625 6.679688 -12.679688 7.515625 -13.515625 C 8.347656 -14.359375 9.003906 -15.09375 9.484375 -15.71875 C 9.953125 -16.34375 10.226562 -16.65625 10.3125 -16.65625 C 10.394531 -16.65625 10.460938 -16.742188 10.515625 -16.921875 C 10.566406 -17.097656 10.664062 -17.210938 10.8125 -17.265625 Z M 10.8125 -17.265625 "/></g></g></g><g fill="#ffffff" fill-opacity="1"><g transform="translate(187.490426, 229.499985)"><g><path d="M 7.921875 -10.140625 C 7.828125 -10.140625 7.78125 -10.179688 7.78125 -10.265625 C 7.78125 -10.359375 7.828125 -10.40625 7.921875 -10.40625 C 8.015625 -10.40625 8.0625 -10.359375 8.0625 -10.265625 C 8.0625 -10.179688 8.015625 -10.140625 7.921875 -10.140625 Z M 8.078125 -10.875 C 8.179688 -11.101562 8.269531 -11.21875 8.34375 -11.21875 C 8.394531 -11.21875 8.425781 -11.210938 8.4375 -11.203125 C 8.445312 -11.191406 8.453125 -11.164062 8.453125 -11.125 C 8.453125 -11.09375 8.441406 -11.050781 8.421875 -11 C 8.410156 -10.945312 8.375 -10.882812 8.3125 -10.8125 C 8.207031 -10.601562 8.125 -10.519531 8.0625 -10.5625 C 7.988281 -10.582031 7.992188 -10.6875 8.078125 -10.875 Z M 5.375 -14.203125 C 5.707031 -14.296875 6.039062 -14.320312 6.375 -14.28125 C 6.707031 -14.25 6.945312 -14.171875 7.09375 -14.046875 C 7.257812 -13.890625 7.394531 -13.65625 7.5 -13.34375 C 7.601562 -13.03125 7.625 -12.820312 7.5625 -12.71875 C 7.507812 -12.625 7.332031 -11.96875 7.03125 -10.75 C 6.726562 -9.53125 6.507812 -8.800781 6.375 -8.5625 C 6.21875 -8.269531 6.066406 -7.945312 5.921875 -7.59375 C 5.785156 -7.238281 5.71875 -7 5.71875 -6.875 C 5.71875 -6.707031 5.859375 -6.847656 6.140625 -7.296875 C 6.367188 -7.640625 6.640625 -8.117188 6.953125 -8.734375 C 7.347656 -9.492188 7.585938 -9.875 7.671875 -9.875 C 7.765625 -9.875 7.78125 -9.789062 7.71875 -9.625 C 7.65625 -9.457031 7.492188 -8.925781 7.234375 -8.03125 C 6.972656 -7.144531 6.703125 -6.429688 6.421875 -5.890625 C 6.140625 -5.347656 6 -5 6 -4.84375 C 6 -4.5625 5.695312 -3.90625 5.09375 -2.875 C 4.488281 -1.851562 4.078125 -1.296875 3.859375 -1.203125 C 3.765625 -1.160156 3.597656 -1.289062 3.359375 -1.59375 L 3 -2.0625 L 3.5 -3.5625 L 4.015625 -5.0625 L 3.375 -5.6875 C 2.9375 -6.101562 2.71875 -6.351562 2.71875 -6.4375 C 2.71875 -6.53125 2.644531 -6.644531 2.5 -6.78125 C 2.363281 -6.925781 2.296875 -7.125 2.296875 -7.375 C 2.296875 -7.539062 2.34375 -7.671875 2.4375 -7.765625 C 2.53125 -7.859375 2.738281 -7.976562 3.0625 -8.125 C 3.5625 -8.375 4.015625 -8.5 4.421875 -8.5 C 4.441406 -8.5 4.484375 -8.5 4.546875 -8.5 C 4.785156 -8.5 4.945312 -8.546875 5.03125 -8.640625 C 5.113281 -8.734375 5.296875 -9.085938 5.578125 -9.703125 C 5.648438 -9.835938 5.695312 -9.9375 5.71875 -10 C 6.101562 -10.84375 6.378906 -11.628906 6.546875 -12.359375 C 6.710938 -13.085938 6.722656 -13.507812 6.578125 -13.625 C 6.484375 -13.6875 6.023438 -13.550781 5.203125 -13.21875 C 4.554688 -12.96875 3.992188 -12.816406 3.515625 -12.765625 C 3.035156 -12.710938 2.726562 -12.757812 2.59375 -12.90625 C 2.394531 -13.15625 2.507812 -13.28125 2.9375 -13.28125 C 3.164062 -13.28125 3.539062 -13.398438 4.0625 -13.640625 C 4.582031 -13.890625 5.019531 -14.078125 5.375 -14.203125 Z M 4.234375 -7.484375 C 4.234375 -7.578125 4.128906 -7.628906 3.921875 -7.640625 C 3.722656 -7.648438 3.507812 -7.628906 3.28125 -7.578125 C 3.144531 -7.523438 3.09375 -7.414062 3.125 -7.25 C 3.164062 -7.082031 3.25 -6.976562 3.375 -6.9375 C 3.550781 -6.894531 3.738281 -6.941406 3.9375 -7.078125 C 4.132812 -7.210938 4.234375 -7.347656 4.234375 -7.484375 Z M 12.296875 -14.484375 C 12.921875 -14.691406 13.421875 -14.742188 13.796875 -14.640625 C 14.171875 -14.546875 14.359375 -14.300781 14.359375 -13.90625 C 14.359375 -13.550781 14.15625 -12.878906 13.75 -11.890625 C 13.34375 -10.910156 12.988281 -10.210938 12.6875 -9.796875 C 12.519531 -9.597656 12.363281 -9.210938 12.21875 -8.640625 C 12.070312 -8.078125 12.039062 -7.757812 12.125 -7.6875 C 12.175781 -7.625 12.394531 -7.59375 12.78125 -7.59375 C 13.132812 -7.582031 13.4375 -7.503906 13.6875 -7.359375 C 13.945312 -7.210938 14.078125 -7.046875 14.078125 -6.859375 C 14.078125 -6.671875 13.734375 -6.222656 13.046875 -5.515625 C 12.359375 -4.804688 12.015625 -4.421875 12.015625 -4.359375 C 12.015625 -4.296875 12.144531 -4.28125 12.40625 -4.3125 C 14.238281 -4.59375 15.316406 -4.46875 15.640625 -3.9375 C 15.742188 -3.75 15.703125 -3.597656 15.515625 -3.484375 C 15.328125 -3.367188 14.914062 -3.234375 14.28125 -3.078125 C 13.8125 -2.960938 13.507812 -2.90625 13.375 -2.90625 C 13.25 -2.90625 13.148438 -2.953125 13.078125 -3.046875 C 13.015625 -3.117188 12.898438 -3.160156 12.734375 -3.171875 C 12.566406 -3.191406 12.234375 -3.179688 11.734375 -3.140625 C 10.816406 -3.054688 9.59375 -2.765625 8.0625 -2.265625 C 7.65625 -2.128906 7.3125 -2.070312 7.03125 -2.09375 C 6.757812 -2.113281 6.609375 -2.195312 6.578125 -2.34375 C 6.554688 -2.53125 6.664062 -2.726562 6.90625 -2.9375 C 7.144531 -3.15625 7.414062 -3.289062 7.71875 -3.34375 C 8.03125 -3.382812 8.421875 -3.566406 8.890625 -3.890625 C 9.359375 -4.210938 9.566406 -4.4375 9.515625 -4.5625 C 9.492188 -4.664062 9.394531 -4.765625 9.21875 -4.859375 C 9.019531 -4.960938 8.90625 -5.0625 8.875 -5.15625 C 8.851562 -5.257812 8.890625 -5.421875 8.984375 -5.640625 C 9.140625 -5.972656 9.570312 -6.382812 10.28125 -6.875 C 10.507812 -7.039062 10.65625 -7.3125 10.71875 -7.6875 C 10.78125 -8.039062 10.75 -8.265625 10.625 -8.359375 C 10.507812 -8.453125 10.25 -8.484375 9.84375 -8.453125 L 9.21875 -8.421875 L 9.265625 -8.984375 C 9.316406 -9.628906 9.570312 -10.234375 10.03125 -10.796875 C 10.5 -11.359375 10.988281 -11.640625 11.5 -11.640625 C 11.875 -11.640625 12.082031 -11.570312 12.125 -11.4375 C 12.21875 -11.195312 12.328125 -11.203125 12.453125 -11.453125 C 12.535156 -11.578125 12.644531 -11.785156 12.78125 -12.078125 L 13.296875 -13.21875 C 13.390625 -13.445312 13.410156 -13.640625 13.359375 -13.796875 C 13.316406 -13.960938 13.21875 -14.023438 13.0625 -13.984375 C 12.675781 -13.929688 12.082031 -13.609375 11.28125 -13.015625 C 11 -12.828125 10.773438 -12.703125 10.609375 -12.640625 C 10.453125 -12.585938 10.234375 -12.566406 9.953125 -12.578125 C 9.617188 -12.578125 9.40625 -12.550781 9.3125 -12.5 C 9.226562 -12.445312 9.09375 -12.265625 8.90625 -11.953125 C 8.6875 -11.640625 8.535156 -11.472656 8.453125 -11.453125 C 8.347656 -11.441406 8.378906 -11.609375 8.546875 -11.953125 C 8.671875 -12.253906 8.75 -12.46875 8.78125 -12.59375 C 8.832031 -12.726562 9.273438 -13.019531 10.109375 -13.46875 C 10.953125 -13.914062 11.679688 -14.253906 12.296875 -14.484375 Z M 10.984375 -10.875 C 10.835938 -10.957031 10.609375 -10.796875 10.296875 -10.390625 C 9.992188 -9.984375 9.84375 -9.644531 9.84375 -9.375 C 9.84375 -9.28125 9.882812 -9.21875 9.96875 -9.1875 C 10.050781 -9.164062 10.160156 -9.175781 10.296875 -9.21875 C 10.441406 -9.269531 10.582031 -9.347656 10.71875 -9.453125 C 10.945312 -9.640625 11.0625 -9.910156 11.0625 -10.265625 C 11.0625 -10.628906 11.035156 -10.832031 10.984375 -10.875 Z M 10.984375 -10.875 "/></g></g></g><g fill="#ffffff" fill-opacity="1"><g transform="translate(205.48333, 229.499985)"><g><path d="M 13.421875 -5.125 C 13.503906 -5.238281 13.601562 -5.28125 13.71875 -5.25 C 13.84375 -5.21875 14.0625 -5.109375 14.375 -4.921875 C 14.6875 -4.734375 14.972656 -4.507812 15.234375 -4.25 C 15.492188 -3.988281 15.65625 -3.78125 15.71875 -3.625 C 15.757812 -3.476562 15.695312 -3.257812 15.53125 -2.96875 C 15.363281 -2.6875 15.210938 -2.546875 15.078125 -2.546875 C 14.941406 -2.546875 14.859375 -2.488281 14.828125 -2.375 C 14.796875 -2.257812 14.421875 -2.179688 13.703125 -2.140625 C 12.984375 -2.109375 12.554688 -2.039062 12.421875 -1.9375 C 12.273438 -1.800781 12.203125 -1.773438 12.203125 -1.859375 C 12.203125 -1.953125 12.304688 -2.09375 12.515625 -2.28125 C 12.773438 -2.507812 13.046875 -2.820312 13.328125 -3.21875 C 13.617188 -3.613281 13.765625 -3.890625 13.765625 -4.046875 C 13.765625 -4.222656 13.6875 -4.414062 13.53125 -4.625 C 13.382812 -4.84375 13.347656 -5.007812 13.421875 -5.125 Z M 10.8125 -14.71875 C 11.457031 -14.988281 11.859375 -15.125 12.015625 -15.125 C 12.179688 -15.125 12.441406 -15.019531 12.796875 -14.8125 C 13.160156 -14.601562 13.328125 -14.453125 13.296875 -14.359375 C 13.273438 -14.273438 12.707031 -13.945312 11.59375 -13.375 C 10.164062 -12.65625 9.203125 -12.050781 8.703125 -11.5625 C 8.566406 -11.425781 8.359375 -11.238281 8.078125 -11 C 7.867188 -10.820312 7.671875 -10.613281 7.484375 -10.375 C 7.296875 -10.132812 7.203125 -9.976562 7.203125 -9.90625 C 7.203125 -9.875 7.226562 -9.863281 7.28125 -9.875 C 7.332031 -9.894531 7.40625 -9.914062 7.5 -9.9375 C 7.601562 -9.96875 7.71875 -10.015625 7.84375 -10.078125 L 8.90625 -10.515625 C 9.425781 -10.742188 9.773438 -10.878906 9.953125 -10.921875 C 10.140625 -10.960938 10.375 -10.960938 10.65625 -10.921875 C 11.007812 -10.867188 11.210938 -10.789062 11.265625 -10.6875 C 11.296875 -10.59375 11.179688 -10.300781 10.921875 -9.8125 C 10.671875 -9.320312 10.441406 -8.960938 10.234375 -8.734375 C 10.046875 -8.535156 9.851562 -8.289062 9.65625 -8 C 9.457031 -7.707031 9.375 -7.546875 9.40625 -7.515625 C 9.4375 -7.492188 9.710938 -7.351562 10.234375 -7.09375 C 10.597656 -6.945312 10.832031 -6.820312 10.9375 -6.71875 C 11.039062 -6.613281 11.125 -6.425781 11.1875 -6.15625 C 11.269531 -5.800781 11.320312 -5.085938 11.34375 -4.015625 C 11.351562 -3.296875 11.34375 -2.8125 11.3125 -2.5625 C 11.28125 -2.320312 11.175781 -2.03125 11 -1.6875 C 10.851562 -1.332031 10.726562 -1.101562 10.625 -1 C 10.53125 -0.90625 10.367188 -0.835938 10.140625 -0.796875 C 9.816406 -0.742188 9.101562 -0.765625 8 -0.859375 C 6.90625 -0.960938 6.25 -0.960938 6.03125 -0.859375 C 5.820312 -0.753906 5.601562 -0.773438 5.375 -0.921875 C 5.175781 -1.035156 4.992188 -1.265625 4.828125 -1.609375 C 4.660156 -1.953125 4.59375 -2.222656 4.625 -2.421875 C 4.644531 -2.535156 4.6875 -2.613281 4.75 -2.65625 C 4.8125 -2.695312 4.921875 -2.710938 5.078125 -2.703125 C 5.234375 -2.671875 5.410156 -2.703125 5.609375 -2.796875 C 5.816406 -2.898438 6.128906 -3.109375 6.546875 -3.421875 C 6.878906 -3.671875 7.222656 -3.910156 7.578125 -4.140625 C 7.941406 -4.378906 8.242188 -4.554688 8.484375 -4.671875 C 8.722656 -4.796875 8.84375 -4.828125 8.84375 -4.765625 C 8.84375 -4.671875 8.691406 -4.421875 8.390625 -4.015625 C 8.097656 -3.609375 7.78125 -3.203125 7.4375 -2.796875 C 6.914062 -2.203125 6.722656 -1.863281 6.859375 -1.78125 C 6.953125 -1.726562 7.164062 -1.726562 7.5 -1.78125 C 8.394531 -1.882812 8.960938 -2.050781 9.203125 -2.28125 C 9.453125 -2.507812 9.59375 -3.015625 9.625 -3.796875 C 9.664062 -4.546875 9.644531 -5.046875 9.5625 -5.296875 C 9.46875 -5.515625 9.359375 -5.625 9.234375 -5.625 C 9.109375 -5.632812 8.816406 -5.539062 8.359375 -5.34375 C 8.078125 -5.21875 7.835938 -5.117188 7.640625 -5.046875 C 7.453125 -4.984375 7.191406 -4.847656 6.859375 -4.640625 C 6.484375 -4.390625 6.21875 -4.335938 6.0625 -4.484375 C 5.914062 -4.628906 5.832031 -5.015625 5.8125 -5.640625 C 5.8125 -5.910156 5.835938 -6.078125 5.890625 -6.140625 C 5.953125 -6.203125 6.101562 -6.269531 6.34375 -6.34375 C 6.6875 -6.4375 7.175781 -6.851562 7.8125 -7.59375 C 8.445312 -8.332031 8.875 -8.863281 9.09375 -9.1875 L 9.4375 -9.6875 L 9.09375 -9.59375 C 7.414062 -9.15625 6.410156 -8.867188 6.078125 -8.734375 C 5.898438 -8.671875 5.8125 -8.738281 5.8125 -8.9375 C 5.8125 -9.1875 5.921875 -9.425781 6.140625 -9.65625 C 6.484375 -10.007812 7.765625 -11.164062 9.984375 -13.125 C 10.578125 -13.65625 10.875 -13.945312 10.875 -14 C 10.875 -14.0625 10.765625 -14.101562 10.546875 -14.125 C 10.328125 -14.144531 10.21875 -14.117188 10.21875 -14.046875 C 10.21875 -13.984375 10.203125 -13.941406 10.171875 -13.921875 C 10.148438 -13.910156 10.125 -13.90625 10.09375 -13.90625 C 10.039062 -13.914062 9.988281 -13.90625 9.9375 -13.875 C 9.894531 -13.851562 9.800781 -13.832031 9.65625 -13.8125 C 9.320312 -13.738281 8.957031 -13.582031 8.5625 -13.34375 C 8.425781 -13.257812 8.035156 -13.085938 7.390625 -12.828125 C 6.753906 -12.578125 6.1875 -12.269531 5.6875 -11.90625 C 5.269531 -11.570312 4.820312 -11.289062 4.34375 -11.0625 C 3.875 -10.84375 3.519531 -10.734375 3.28125 -10.734375 C 3.082031 -10.734375 2.863281 -10.773438 2.625 -10.859375 C 2.382812 -10.953125 2.265625 -11.03125 2.265625 -11.09375 C 2.265625 -11.1875 2.515625 -11.269531 3.015625 -11.34375 C 3.734375 -11.414062 4.210938 -11.570312 4.453125 -11.8125 C 4.492188 -11.875 4.722656 -11.992188 5.140625 -12.171875 C 5.554688 -12.347656 5.78125 -12.4375 5.8125 -12.4375 C 5.875 -12.4375 6.242188 -12.601562 6.921875 -12.9375 C 8.546875 -13.738281 9.84375 -14.332031 10.8125 -14.71875 Z M 10.8125 -14.71875 "/></g></g></g><g fill="#ffffff" fill-opacity="1"><g transform="translate(223.476234, 229.499985)"><g><path d="M 5.421875 -15.453125 C 5.421875 -15.679688 5.46875 -15.796875 5.5625 -15.796875 C 5.65625 -15.804688 5.863281 -15.722656 6.1875 -15.546875 C 6.789062 -15.179688 6.820312 -14.671875 6.28125 -14.015625 C 6.007812 -13.710938 5.65625 -13.265625 5.21875 -12.671875 C 4.789062 -12.085938 4.351562 -11.5625 3.90625 -11.09375 C 2.539062 -9.6875 1.972656 -8.984375 2.203125 -8.984375 C 2.359375 -8.984375 2.582031 -9.0625 2.875 -9.21875 C 3.144531 -9.351562 3.445312 -9.410156 3.78125 -9.390625 C 4.113281 -9.378906 4.359375 -9.289062 4.515625 -9.125 C 4.648438 -8.988281 4.710938 -8.847656 4.703125 -8.703125 C 4.691406 -8.566406 4.597656 -8.164062 4.421875 -7.5 C 4.191406 -6.695312 4.070312 -6.207031 4.0625 -6.03125 C 4.0625 -5.851562 4.15625 -5.65625 4.34375 -5.4375 L 4.640625 -5.09375 L 4.875 -5.421875 C 5.019531 -5.617188 5.300781 -6.128906 5.71875 -6.953125 C 6.132812 -7.785156 6.398438 -8.390625 6.515625 -8.765625 C 6.609375 -8.984375 6.648438 -9.128906 6.640625 -9.203125 C 6.628906 -9.273438 6.554688 -9.367188 6.421875 -9.484375 C 6.203125 -9.628906 6.109375 -9.738281 6.140625 -9.8125 C 6.171875 -9.894531 6.34375 -10.003906 6.65625 -10.140625 C 6.875 -10.242188 7.269531 -10.488281 7.84375 -10.875 C 8.425781 -11.257812 8.878906 -11.570312 9.203125 -11.8125 C 9.835938 -12.332031 10.25 -12.640625 10.4375 -12.734375 C 10.632812 -12.828125 10.957031 -12.863281 11.40625 -12.84375 C 11.707031 -12.8125 11.859375 -12.738281 11.859375 -12.625 C 11.859375 -12.507812 11.425781 -11.796875 10.5625 -10.484375 C 9.25 -8.484375 8.664062 -7.484375 8.8125 -7.484375 C 8.90625 -7.484375 9.269531 -7.695312 9.90625 -8.125 C 10.539062 -8.5625 10.882812 -8.828125 10.9375 -8.921875 C 11.019531 -9.054688 11.3125 -9.125 11.8125 -9.125 L 12.578125 -9.125 L 12.5 -8.296875 C 12.46875 -7.972656 12.414062 -7.710938 12.34375 -7.515625 C 12.269531 -7.316406 12.132812 -7.078125 11.9375 -6.796875 C 11.644531 -6.410156 11.488281 -6.15625 11.46875 -6.03125 C 11.445312 -5.90625 11.53125 -5.707031 11.71875 -5.4375 C 11.875 -5.226562 11.957031 -4.96875 11.96875 -4.65625 C 11.976562 -4.34375 11.921875 -3.6875 11.796875 -2.6875 C 11.734375 -2.269531 11.75 -2 11.84375 -1.875 C 11.945312 -1.726562 12.304688 -1.640625 12.921875 -1.609375 C 13.535156 -1.585938 14.0625 -1.648438 14.5 -1.796875 C 15.0625 -1.941406 15.421875 -2.113281 15.578125 -2.3125 C 15.734375 -2.519531 15.832031 -2.898438 15.875 -3.453125 C 15.945312 -4.148438 16.007812 -4.582031 16.0625 -4.75 C 16.113281 -4.925781 16.21875 -5.015625 16.375 -5.015625 C 16.488281 -5.015625 16.5625 -4.984375 16.59375 -4.921875 C 16.625 -4.867188 16.640625 -4.757812 16.640625 -4.59375 C 16.640625 -4.320312 16.773438 -3.972656 17.046875 -3.546875 C 17.316406 -3.117188 17.46875 -2.628906 17.5 -2.078125 L 17.546875 -1.28125 L 16.78125 -0.90625 C 15.632812 -0.300781 14.191406 -0.117188 12.453125 -0.359375 L 11.09375 -0.578125 L 10.71875 -1.359375 C 10.53125 -1.753906 10.429688 -2.015625 10.421875 -2.140625 C 10.410156 -2.273438 10.441406 -2.519531 10.515625 -2.875 C 10.679688 -3.382812 10.8125 -3.921875 10.90625 -4.484375 C 11.007812 -5.054688 11.023438 -5.363281 10.953125 -5.40625 C 10.921875 -5.457031 10.804688 -5.378906 10.609375 -5.171875 C 10.410156 -4.972656 10.175781 -4.6875 9.90625 -4.3125 C 9.632812 -3.945312 9.375 -3.570312 9.125 -3.1875 C 8.695312 -2.476562 8.140625 -1.757812 7.453125 -1.03125 C 6.765625 -0.3125 6.296875 0.046875 6.046875 0.046875 C 5.890625 0.046875 5.789062 0.0195312 5.75 -0.03125 C 5.71875 -0.09375 5.703125 -0.242188 5.703125 -0.484375 C 5.703125 -0.691406 5.738281 -0.875 5.8125 -1.03125 C 5.882812 -1.195312 6.046875 -1.414062 6.296875 -1.6875 C 7.242188 -2.757812 7.914062 -3.597656 8.3125 -4.203125 L 9.234375 -5.5625 C 9.617188 -6.132812 9.789062 -6.4375 9.75 -6.46875 C 9.71875 -6.5 9.347656 -6.335938 8.640625 -5.984375 C 8.015625 -5.648438 7.570312 -5.46875 7.3125 -5.4375 C 7.0625 -5.414062 6.890625 -5.523438 6.796875 -5.765625 C 6.703125 -6.015625 6.660156 -6.269531 6.671875 -6.53125 C 6.679688 -6.789062 6.726562 -6.921875 6.8125 -6.921875 C 6.976562 -6.921875 7.335938 -7.285156 7.890625 -8.015625 C 8.453125 -8.753906 8.96875 -9.535156 9.4375 -10.359375 C 9.6875 -10.796875 9.753906 -11.015625 9.640625 -11.015625 C 9.492188 -11.015625 9.066406 -10.78125 8.359375 -10.3125 C 7.910156 -10.007812 7.582031 -9.742188 7.375 -9.515625 C 7.164062 -9.296875 6.976562 -8.984375 6.8125 -8.578125 C 6.644531 -8.179688 6.390625 -7.472656 6.046875 -6.453125 C 5.628906 -5.191406 5.171875 -4.050781 4.671875 -3.03125 C 4.171875 -2.019531 3.914062 -1.394531 3.90625 -1.15625 C 3.863281 -0.914062 3.742188 -0.789062 3.546875 -0.78125 C 3.359375 -0.769531 3.195312 -0.890625 3.0625 -1.140625 C 2.875 -1.503906 2.769531 -1.820312 2.75 -2.09375 C 2.738281 -2.363281 2.800781 -2.660156 2.9375 -2.984375 C 3.164062 -3.472656 3.289062 -3.867188 3.3125 -4.171875 C 3.34375 -4.484375 3.269531 -4.828125 3.09375 -5.203125 C 2.925781 -5.578125 2.835938 -5.882812 2.828125 -6.125 C 2.816406 -6.363281 2.890625 -6.640625 3.046875 -6.953125 C 3.171875 -7.304688 3.234375 -7.59375 3.234375 -7.8125 L 3.234375 -8.140625 L 2.65625 -7.78125 C 1.394531 -6.925781 0.671875 -6.851562 0.484375 -7.5625 C 0.390625 -7.882812 0.445312 -8.21875 0.65625 -8.5625 C 0.875 -8.914062 1.375 -9.535156 2.15625 -10.421875 C 2.570312 -10.867188 2.988281 -11.375 3.40625 -11.9375 C 3.832031 -12.5 4.40625 -13.378906 5.125 -14.578125 C 5.320312 -14.910156 5.421875 -15.203125 5.421875 -15.453125 Z M 9.546875 -15.84375 C 9.660156 -15.914062 9.75 -15.945312 9.8125 -15.9375 C 9.875 -15.9375 10.050781 -15.859375 10.34375 -15.703125 C 10.726562 -15.503906 10.96875 -15.328125 11.0625 -15.171875 C 11.15625 -15.023438 11.148438 -14.816406 11.046875 -14.546875 C 10.929688 -14.191406 10.707031 -13.945312 10.375 -13.8125 C 10.039062 -13.6875 9.703125 -13.53125 9.359375 -13.34375 C 8.941406 -13.125 8.71875 -13.078125 8.6875 -13.203125 C 8.664062 -13.242188 8.722656 -13.3125 8.859375 -13.40625 C 9.085938 -13.59375 9.300781 -13.832031 9.5 -14.125 C 9.707031 -14.425781 9.8125 -14.664062 9.8125 -14.84375 C 9.8125 -15.070312 9.734375 -15.273438 9.578125 -15.453125 C 9.472656 -15.566406 9.421875 -15.644531 9.421875 -15.6875 C 9.421875 -15.738281 9.460938 -15.789062 9.546875 -15.84375 Z M 9.546875 -15.84375 "/></g></g></g></svg>